<svg xmlns="http://www.w3.org/2000/svg" viewBox="0 0 146.16 24.5"><defs><style>.cls-1{fill:#261c02;}.cls-2{fill:#fff;}.cls-3{fill:#c41230;}</style></defs><title>UFB_Logos_Default</title><g id="Layer_2" data-name="Layer 2"><g id="Layer_1-2" data-name="Layer 1"><path class="cls-1" d="M29,7.55q.93.09,1.5.09A12.72,12.72,0,0,0,32,7.55v.2a1.77,1.77,0,0,0-.73.18c-.13.1-.19.34-.19.72v3.19q0,.08,0,2.2,0,2.39,2,2.39,2.18,0,2.18-2.62V8.4a.52.52,0,0,0-.3-.52,1.88,1.88,0,0,0-.62-.12V7.55a13.19,13.19,0,0,0,1.49.1c.37,0,.87,0,1.51-.1v.22q-.73.11-.73,1c0,.07,0,.22,0,.47s0,.4,0,.47v3a6.22,6.22,0,0,1-.63,3.19,3.07,3.07,0,0,1-2.85,1.28q-3.53,0-3.53-3.21V8.43c0-.45-.2-.67-.6-.67H29Z"/><path class="cls-1" d="M38.4,7.55h7q.1,1.38.24,2.36h-.2a2.17,2.17,0,0,0-.51-1.23,1.62,1.62,0,0,0-1.14-.34h-1.2V16a.56.56,0,0,0,.29.54,2.56,2.56,0,0,0,.62.18v.12l-1.67-.07q-.41,0-1.53.07v-.17a1.74,1.74,0,0,0,.71-.22,1,1,0,0,0,.19-.72V8.34L40,8.32a1.48,1.48,0,0,0-1.22.37,7.32,7.32,0,0,0-.47,1.22h-.18c.08-.48.16-1.26.24-2.36"/><path class="cls-1" d="M45.34,16.73a1.22,1.22,0,0,0,.55-.19,1.24,1.24,0,0,0,.32-.52q3-7.35,3-7.8a.46.46,0,0,0-.22-.41l-.29-.09V7.55c.63.05,1,.08,1.21.08l.68-.08a5.12,5.12,0,0,0,.28,1l2.93,7.25a3.49,3.49,0,0,0,.29.64,1.41,1.41,0,0,0,.63.31v.18a14.08,14.08,0,0,0-1.42-.1q-.87,0-1.57.06v-.16c.5,0,.75-.14.75-.42A4.46,4.46,0,0,0,52,14.87l-.62-1.47H48.14l-.59,1.45a4.73,4.73,0,0,0-.42,1.4c0,.28.26.44.78.49v.15l-.61,0-.62,0q-.37,0-1.34.06Zm5.8-4L49.75,9.06l-1.36,3.65Z"/><path class="cls-1" d="M55.63,16.71a1.06,1.06,0,0,0,.62-.21A.73.73,0,0,0,56.4,16V8.28a.42.42,0,0,0-.26-.39,2.23,2.23,0,0,0-.49-.14v-.2c.55.05,1.08.08,1.61.08.1,0,.53,0,1.31-.12v.24a2.65,2.65,0,0,0-.65.24,1.08,1.08,0,0,0-.14.7v2.9h4.75V8.25a.39.39,0,0,0-.25-.4,3.07,3.07,0,0,0-.5-.1v-.2q.76.07,1.83.07c.15,0,.52,0,1.11-.11v.2a2.77,2.77,0,0,0-.58.16.56.56,0,0,0-.23.53V16q0,.73.81.76v.19c-.71-.06-1.2-.09-1.47-.09a14.23,14.23,0,0,0-1.53.09v-.19a2.75,2.75,0,0,0,.52-.16.48.48,0,0,0,.25-.45V12.47H57.77V16q0,.65.79.74v.19l-1.36-.12a15.23,15.23,0,0,0-1.57.09Z"/><path class="cls-1" d="M69.69,7.59h6.85v.26c0,.12,0,.75.09,1.9h-.16a2.63,2.63,0,0,0-.4-1,1.34,1.34,0,0,0-1-.31H71.87v3.43h2.26a.81.81,0,0,0,.58-.18A1.16,1.16,0,0,0,75,11h.14q0,.76,0,1.31,0,.14.07,1.2H75a1,1,0,0,0-.29-.68,1.3,1.3,0,0,0-.79-.18h-2V16a.7.7,0,0,0,.27.61,1.53,1.53,0,0,0,.65.2v.18a12.63,12.63,0,0,0-1.5-.13,15.87,15.87,0,0,0-1.61.08v-.16a.74.74,0,0,0,.79-.85V8.52c0-.49-.27-.74-.79-.75Z"/><path class="cls-1" d="M81.76,7.38A3.89,3.89,0,0,1,84.9,8.83,5,5,0,0,1,86,12.16a5,5,0,0,1-1.38,3.47,4.29,4.29,0,0,1-3.25,1.49,4.17,4.17,0,0,1-3.16-1.33A4.61,4.61,0,0,1,77,12.49a5.15,5.15,0,0,1,1.37-3.64,4.46,4.46,0,0,1,3.41-1.47m-.07,8.8A2.75,2.75,0,0,0,84,15.06a3.9,3.9,0,0,0,.79-2.48,4.77,4.77,0,0,0-.89-2.88,3,3,0,0,0-2.58-1.36,2.79,2.79,0,0,0-2.22,1,3.77,3.77,0,0,0-.86,2.55,4.83,4.83,0,0,0,.89,2.89,3,3,0,0,0,2.58,1.4"/><path class="cls-1" d="M91.7,7.38a3.9,3.9,0,0,1,3.14,1.45A5,5,0,0,1,96,12.16a5,5,0,0,1-1.38,3.47,4.29,4.29,0,0,1-3.25,1.49,4.18,4.18,0,0,1-3.16-1.33,4.61,4.61,0,0,1-1.26-3.3,5.15,5.15,0,0,1,1.37-3.64A4.46,4.46,0,0,1,91.7,7.38m-.07,8.8a2.75,2.75,0,0,0,2.29-1.12,3.9,3.9,0,0,0,.8-2.48,4.77,4.77,0,0,0-.89-2.88,3,3,0,0,0-2.58-1.36,2.79,2.79,0,0,0-2.22,1,3.77,3.77,0,0,0-.86,2.55,4.84,4.84,0,0,0,.89,2.89,3,3,0,0,0,2.58,1.4"/><path class="cls-1" d="M96.71,16.71q.75,0,.75-.71V8.33c0-.41-.25-.61-.75-.61V7.55h3.71a5.55,5.55,0,0,1,3.83,1.27,4.39,4.39,0,0,1,1.43,3.46,4.31,4.31,0,0,1-1.78,3.53,6.49,6.49,0,0,1-4.09,1.1h-3.1Zm2.68-.58a9.57,9.57,0,0,0,2-.16,3.71,3.71,0,0,0,2.91-3.74,3.46,3.46,0,0,0-1.48-3.06,5.94,5.94,0,0,0-3.42-.88l-.54,0v7.78a5.27,5.27,0,0,0,.56,0"/><path class="cls-1" d="M110.21,16.73q.77,0,.77-.63v-8q0-.35-.76-.38V7.55h3.73a4.07,4.07,0,0,1,2.31.56,1.82,1.82,0,0,1,.82,1.6,1.86,1.86,0,0,1-.39,1.21,3.29,3.29,0,0,1-1.31.86v.05a3.7,3.7,0,0,1,1.78.68,2.12,2.12,0,0,1,.69,1.72,2.47,2.47,0,0,1-1.37,2.15,5.17,5.17,0,0,1-2.62.51h-3.66Zm2.91-5.12a4.22,4.22,0,0,0,1.73-.31,1.38,1.38,0,0,0,.93-1.32,1.55,1.55,0,0,0-.54-1.24,2.1,2.1,0,0,0-1.41-.47h-1.45v3.34Zm.45,4.56a4.48,4.48,0,0,0,1.9-.37,1.58,1.58,0,0,0,1-1.49,1.69,1.69,0,0,0-1-1.57,4.08,4.08,0,0,0-1.91-.41h-1.24v3.83Z"/><path class="cls-1" d="M118.16,16.73a1.22,1.22,0,0,0,.55-.19A1.24,1.24,0,0,0,119,16q3-7.35,3-7.8a.46.46,0,0,0-.22-.41l-.29-.09V7.55c.63.05,1,.08,1.21.08l.68-.08a5.26,5.26,0,0,0,.28,1l2.93,7.25a3.85,3.85,0,0,0,.29.64,1.42,1.42,0,0,0,.64.31v.18a14.08,14.08,0,0,0-1.42-.1q-.87,0-1.57.06v-.16c.5,0,.75-.14.75-.42a4.49,4.49,0,0,0-.41-1.44l-.62-1.47H121l-.59,1.45a4.78,4.78,0,0,0-.42,1.4c0,.28.26.44.78.49v.15l-.61,0-.62,0q-.37,0-1.34.06Zm5.8-4-1.4-3.65-1.36,3.65Z"/><path class="cls-1" d="M127.85,16.73a.79.79,0,0,0,.61-.24,1.25,1.25,0,0,0,.18-.77V8.44a.61.61,0,0,0-.19-.54,1.55,1.55,0,0,0-.57-.15v-.2l1,.05c.29,0,.7,0,1.23-.05l4.82,7.09V8.83a1.27,1.27,0,0,0-.18-.79,1.16,1.16,0,0,0-.74-.28v-.2a9.72,9.72,0,0,0,1.19.05q.42,0,1.26-.05v.17a.86.86,0,0,0-.59.53,6.33,6.33,0,0,0,0,.82v7.83H135q-1.79-2.64-5.48-7.84v6.35a1.94,1.94,0,0,0,.15.91,1,1,0,0,0,.81.41v.16a11.88,11.88,0,0,0-1.38-.08l-1.27.05Z"/><path class="cls-1" d="M137.59,16.73q.77-.07.77-.74V8.45c0-.29-.06-.48-.18-.55a5,5,0,0,0-.58-.13v-.2c.72,0,1.2.07,1.43.07a15,15,0,0,0,1.56-.09v.2a2,2,0,0,0-.67.18.78.78,0,0,0-.21.65V12q1-.93,3.39-3.59a.68.68,0,0,0,.21-.42q0-.24-.61-.31V7.57q.67.06,1.89.06c.2,0,.55,0,1-.06v.17a2.27,2.27,0,0,0-.81.28,3.88,3.88,0,0,0-.62.58l-3,3.21a37.57,37.57,0,0,1,3.56,3.77l.54.64a1.24,1.24,0,0,0,.66.45l.21,0v.15l-1,0a9.31,9.31,0,0,0-1,.06l-2.1-2.5a14.24,14.24,0,0,0-2.32-2.24V16c0,.54.32.8.94.76v.18a14.31,14.31,0,0,0-1.65-.09l-1.42.09Z"/><path class="cls-1" d="M23.75,0H.75A.75.75,0,0,0,0,.75v23a.75.75,0,0,0,.75.75h23a.75.75,0,0,0,.75-.75V.75A.75.75,0,0,0,23.75,0m.14,23.75a.14.14,0,0,1-.14.14H.75a.14.14,0,0,1-.14-.14V.75A.13.13,0,0,1,.75.61h23a.14.14,0,0,1,.14.13Z"/><rect class="cls-2" x="0.57" y="0.61" width="23.27" height="23.27" rx="0.14" ry="0.14"/><path class="cls-3" d="M16.75,17.79a1.72,1.72,0,0,1-1.05.4h-.1a1.71,1.71,0,0,1,.1.57,1.53,1.53,0,0,1-.55,1.15,1.55,1.55,0,0,1-1,.42H14a1.39,1.39,0,0,1-.3-.06l-1.33,1.45a.43.43,0,0,0-.06.22.16.16,0,0,0,0,0V22h0a.77.77,0,0,0,.35.51,1.72,1.72,0,0,0,.46.08.49.49,0,0,0,.31-.08l2.24-2.43s1-1,2.16-2.4a2,2,0,0,1-.47-1,1.34,1.34,0,0,1-.59,1m-4.09,2a.62.62,0,0,0,0-.13h0l-.05-.08-.21-.3-2.5-3.62-.06-.08-.7-1L8,12.92H8a.36.36,0,0,1,0-.08H8a.24.24,0,0,1,0-.06.32.32,0,0,1,.32-.32.31.31,0,0,1,.26.14l2.4,3.47.47.68L13,19l.08.11.15.17a1.64,1.64,0,0,0,.44.33l.18.07a.84.84,0,0,0,.24,0,.9.9,0,0,0,.6-.25.88.88,0,0,0,.34-.67,1.31,1.31,0,0,0-.17-.59v0L14.76,18l0-.05-.2-.26L12.3,14.51l-2-2.83-.19-.27,0,0,0,0a.3.3,0,0,1,0-.09.22.22,0,0,1,0,0,.32.32,0,0,1,.13-.26.32.32,0,0,1,.19-.06.32.32,0,0,1,.26.14l4.25,5.91.2.28.14.13,0,0a.82.82,0,0,0,.5.18,1.08,1.08,0,0,0,.65-.27.7.7,0,0,0,.34-.56,1,1,0,0,0-.16-.48,8.22,8.22,0,0,0-.55-.78l-2.22-3.15,0,0-.29-.41-.35-.49-.31-.45-.08-.11-.9-1.34L12,9.37l.1-.07h0l.23-.16.11.17a8,8,0,0,0,1.2,1.61l.29.19a2.86,2.86,0,0,0,.53.23,2.46,2.46,0,0,0,.58.11h.11a1.2,1.2,0,0,0,.72-.2.75.75,0,0,0,.29-.64s0-.1,0-.15,0,0,0-.05L12.22,5l-.67-.93A6.59,6.59,0,0,0,8,2a5.32,5.32,0,0,0-1.09-.11A5.61,5.61,0,0,0,2.28,4.46a5.22,5.22,0,0,0-.61,1.36A5.74,5.74,0,0,0,1.45,7.4,10.39,10.39,0,0,0,2.8,12.08a25.8,25.8,0,0,0,3.25,4.68c1,1.23,1.9,2.36,2,2.53a1.11,1.11,0,0,0,.16.12.81.81,0,0,0,.39.12.48.48,0,0,0,.25-.07L9,19.37a.76.76,0,0,0,.27-.54v0a.59.59,0,0,0,0-.08,1.21,1.21,0,0,0,0-.2L9,18.24,7.15,15.5l-.82-1.19a.34.34,0,0,1-.06-.15L6.14,14l.09-.09a.22.22,0,0,1,.18-.11v.1l.1,0v0H6.6a.32.32,0,0,1,.27.14l1.26,1.85,1.64,2.39.31.43.37.51.37.52,0,0a2.19,2.19,0,0,1,.19.27,1.15,1.15,0,0,0,.87.6H12a.85.85,0,0,0,.64-.74m-2,.76c-.18.19-.3.32-.29.45a.3.3,0,0,0,0,0v0a.77.77,0,0,0,0,.08.53.53,0,0,0,.31.51h0a.47.47,0,0,0,.27.07,1.41,1.41,0,0,0,.61-.17l.37-.4H11.9a1.59,1.59,0,0,1-1.21-.64m-1.24-.72L9.29,20a.33.33,0,0,0,.16.13h0a.74.74,0,0,0,.33.09.62.62,0,0,0,.45-.23l-.44-.62a1.56,1.56,0,0,1-.36.5M22.3,5a6.22,6.22,0,0,0-5.1-3,4.61,4.61,0,0,0-.6,0c-1.72.08-3.33,1.81-3.83,2.58l4,5.47v.1a2.12,2.12,0,0,1,0,.36,1.39,1.39,0,0,1-.66,1.23,1.9,1.9,0,0,1-1,.26,2.87,2.87,0,0,1-.8-.12l2.2,3.11.13.18a3.52,3.52,0,0,1,.65,1.16s0,0,0-.08a3.68,3.68,0,0,1,.48-1.7l.05-.08A4,4,0,0,0,18.46,13a.32.32,0,0,0,0,0,3.36,3.36,0,0,0-.64-1.39,6.31,6.31,0,0,1-.9-1.85,4,4,0,0,1-.1-.88,2.41,2.41,0,0,1,1-2,.32.32,0,0,1,.2-.07h0a.32.32,0,0,1,.32.32.33.33,0,0,1-.12.25,1.75,1.75,0,0,0-.73,1.51,3.32,3.32,0,0,0,.09.74,5.88,5.88,0,0,0,.81,1.63,3.69,3.69,0,0,1,.75,1.74.84.84,0,0,1,0,.1,4.58,4.58,0,0,1-.71,1.85l0,.08a3,3,0,0,0-.4,1.37,1.41,1.41,0,0,0,.3.9,32.69,32.69,0,0,0,3.46-4.59A10.16,10.16,0,0,0,23,7.95,6,6,0,0,0,22.3,5"/></g></g></svg>