<svg xmlns="http://www.w3.org/2000/svg" viewBox="0 0 70.77 33.19"><defs><style>.cls-1{fill:#261c02;}.cls-2{fill:#fff;}.cls-3{fill:#c41230;}</style></defs><title>UFB_Logos_Hor_Default</title><g id="Layer_2" data-name="Layer 2"><g id="Layer_1-2" data-name="Layer 1"><path class="cls-1" d="M38.35,0a10.77,10.77,0,0,0,1.18.08A8.72,8.72,0,0,0,40.71,0V.19a1.42,1.42,0,0,0-.58.14C40,.4,40,.59,40,.89v2.5S40,4,40,5.12,40.53,7,41.59,7s1.71-.68,1.71-2.05V.69a.41.41,0,0,0-.24-.4A1.49,1.49,0,0,0,42.58.2V0a8.85,8.85,0,0,0,1.16.09A10.46,10.46,0,0,0,44.93,0V.2a.66.66,0,0,0-.58.75q0,.08,0,.37c0,.19,0,.32,0,.37V4a4.89,4.89,0,0,1-.49,2.5,2.41,2.41,0,0,1-2.24,1Q38.9,7.54,38.9,5V.73q0-.53-.46-.53h-.08Z"/><path class="cls-1" d="M47.2,0h5.48q.07,1.09.19,1.86h-.16a1.75,1.75,0,0,0-.4-1,1.26,1.26,0,0,0-.89-.27h-.93v6a.44.44,0,0,0,.22.42,1.93,1.93,0,0,0,.48.14v.1l-1.31-.06c-.21,0-.61,0-1.2.06V7.22A1.38,1.38,0,0,0,49.25,7a.76.76,0,0,0,.15-.57V.65h-.92a1.16,1.16,0,0,0-1,.29,5.89,5.89,0,0,0-.37,1H47q.09-.56.19-1.86"/><path class="cls-1" d="M53.95,7.24a1,1,0,0,0,.43-.15,1,1,0,0,0,.25-.4Q56.95.92,56.95.57a.38.38,0,0,0-.17-.33L56.54.17V0c.49,0,.81.07.95.07L58,0a4,4,0,0,0,.22.78L60.54,6.5a2.76,2.76,0,0,0,.23.5,1.13,1.13,0,0,0,.5.25v.14a11,11,0,0,0-1.12-.08q-.69,0-1.24.05V7.23c.4,0,.6-.11.6-.33a3.59,3.59,0,0,0-.31-1.13l-.48-1.14H56.15l-.47,1.13a3.71,3.71,0,0,0-.33,1.1q0,.33.61.38v.12l-.48,0L55,7.3c-.19,0-.54,0-1.05.05Zm4.55-3.15L57.4,1.21,56.32,4.09Z"/><path class="cls-1" d="M63.48,7.21A.82.82,0,0,0,64,7a.57.57,0,0,0,.12-.41V.6a.33.33,0,0,0-.2-.31,1.71,1.71,0,0,0-.37-.11V0A11.48,11.48,0,0,0,64.77.1l1-.1V.18a2.17,2.17,0,0,0-.52.18.85.85,0,0,0-.11.55V3.2h3.7V.58a.31.31,0,0,0-.19-.31L68.29.19V0a13.94,13.94,0,0,0,1.43.06q.18,0,.87-.09V.16a2.33,2.33,0,0,0-.46.12.44.44,0,0,0-.18.42V6.62q0,.57.65.59v.16c-.56-.05-.94-.08-1.15-.08a10.76,10.76,0,0,0-1.19.08V7.21a2.27,2.27,0,0,0,.41-.12.37.37,0,0,0,.2-.36V3.9H65.17V6.63q0,.51.63.58v.16l-1.07-.1a11.84,11.84,0,0,0-1.24.07Z"/><path class="cls-1" d="M38.45,13h5.37v.21c0,.09,0,.58.07,1.48h-.13a2,2,0,0,0-.31-.78,1.05,1.05,0,0,0-.8-.24h-2.5v2.69h1.78a.65.65,0,0,0,.46-.14.89.89,0,0,0,.2-.51h.11c0,.4,0,.74,0,1,0,.08,0,.39.05.94h-.14a.82.82,0,0,0-.23-.54,1,1,0,0,0-.62-.14H40.15v2.56a.54.54,0,0,0,.22.47,1.26,1.26,0,0,0,.52.16v.14a10.5,10.5,0,0,0-1.17-.1,12,12,0,0,0-1.26.07v-.12a.58.58,0,0,0,.62-.67V13.7c0-.38-.21-.58-.62-.59Z"/><path class="cls-1" d="M49.15,12.8a3,3,0,0,1,2.46,1.14,3.93,3.93,0,0,1,.89,2.61,3.88,3.88,0,0,1-1.08,2.72,3.37,3.37,0,0,1-2.55,1.17,3.27,3.27,0,0,1-2.48-1,3.62,3.62,0,0,1-1-2.59A4,4,0,0,1,46.48,14a3.5,3.5,0,0,1,2.68-1.15m-.06,6.91a2.16,2.16,0,0,0,1.79-.88,3.08,3.08,0,0,0,.62-1.95,3.75,3.75,0,0,0-.7-2.26,2.38,2.38,0,0,0-2-1.07,2.2,2.2,0,0,0-1.74.79,3,3,0,0,0-.67,2,3.8,3.8,0,0,0,.7,2.27,2.38,2.38,0,0,0,2,1.1"/><path class="cls-1" d="M58.19,12.8a3.06,3.06,0,0,1,2.46,1.14,3.94,3.94,0,0,1,.89,2.61,3.88,3.88,0,0,1-1.08,2.72,3.36,3.36,0,0,1-2.55,1.17,3.27,3.27,0,0,1-2.48-1,3.62,3.62,0,0,1-1-2.59A4,4,0,0,1,55.51,14a3.5,3.5,0,0,1,2.68-1.15m-.06,6.91a2.16,2.16,0,0,0,1.8-.88,3.09,3.09,0,0,0,.62-1.95,3.76,3.76,0,0,0-.69-2.26,2.39,2.39,0,0,0-2-1.07,2.2,2.2,0,0,0-1.74.79,3,3,0,0,0-.67,2,3.81,3.81,0,0,0,.7,2.27,2.38,2.38,0,0,0,2,1.1"/><path class="cls-1" d="M63.36,20.13c.39,0,.59-.18.59-.55v-6c0-.32-.2-.48-.59-.48v-.14h2.91a4.35,4.35,0,0,1,3,1,3.45,3.45,0,0,1,1.12,2.72A3.37,3.37,0,0,1,69,19.41a5.1,5.1,0,0,1-3.21.86H63.36Zm2.11-.46A7.46,7.46,0,0,0,67,19.54a2.91,2.91,0,0,0,2.27-2.93,2.72,2.72,0,0,0-1.16-2.4,4.64,4.64,0,0,0-2.68-.69l-.42,0v6.1l.44,0"/><path class="cls-1" d="M38.42,33q.6,0,.6-.49V26.28c0-.18-.2-.28-.6-.3v-.16h2.93a3.21,3.21,0,0,1,1.81.44,1.43,1.43,0,0,1,.65,1.26,1.46,1.46,0,0,1-.31,1,2.61,2.61,0,0,1-1,.68v0a2.9,2.9,0,0,1,1.4.53,1.67,1.67,0,0,1,.54,1.35,1.94,1.94,0,0,1-1.07,1.69,4,4,0,0,1-2.05.4H38.42Zm2.27-4a3.36,3.36,0,0,0,1.37-.25,1.09,1.09,0,0,0,.74-1,1.21,1.21,0,0,0-.43-1,1.66,1.66,0,0,0-1.12-.37H40.11V29ZM41,32.6a3.52,3.52,0,0,0,1.5-.29,1.23,1.23,0,0,0,.81-1.16,1.32,1.32,0,0,0-.78-1.23,3.21,3.21,0,0,0-1.5-.32h-1v3Z"/><path class="cls-1" d="M46,33a1,1,0,0,0,.43-.15,1,1,0,0,0,.25-.4Q49,26.73,49,26.37a.38.38,0,0,0-.17-.33L48.59,26v-.14c.5,0,.81.07.95.07l.53-.07a4,4,0,0,0,.22.78l2.29,5.68a2.9,2.9,0,0,0,.23.5,1.1,1.1,0,0,0,.5.25v.14a10.93,10.93,0,0,0-1.12-.08c-.46,0-.87,0-1.24.05V33q.6,0,.6-.33a3.61,3.61,0,0,0-.31-1.13l-.48-1.14H48.2l-.46,1.13a3.67,3.67,0,0,0-.33,1.1c0,.22.2.35.61.38v.12l-.48,0-.49,0L46,33.16Zm4.55-3.15L49.45,27l-1.08,2.88Z"/><path class="cls-1" d="M55,33a.64.64,0,0,0,.49-.19,1,1,0,0,0,.14-.61V26.52a.48.48,0,0,0-.15-.42A1.21,1.21,0,0,0,55,26v-.15l.79.05q.34,0,1-.05l3.79,5.57V26.83a1,1,0,0,0-.14-.62,1,1,0,0,0-.59-.22v-.16a6.16,6.16,0,0,0,.93.05c.22,0,.55,0,1-.05V26a.67.67,0,0,0-.45.41,5.07,5.07,0,0,0,0,.65v6.15h-.63q-1.4-2.07-4.29-6.14v5a1.53,1.53,0,0,0,.12.71A.75.75,0,0,0,57,33v.13a9.07,9.07,0,0,0-1.08-.07l-1,0Z"/><path class="cls-1" d="M64.05,33c.4,0,.6-.23.6-.58v-5.9c0-.23,0-.38-.14-.43l-.46-.1v-.15l1.12.05a9.94,9.94,0,0,0,1.22-.08V26a1.49,1.49,0,0,0-.53.14.61.61,0,0,0-.16.51v2.74q.8-.73,2.66-2.81a.53.53,0,0,0,.17-.33c0-.13-.16-.21-.49-.24v-.12q.53,0,1.49,0l.82,0V26a1.75,1.75,0,0,0-.63.22,3,3,0,0,0-.48.46l-2.36,2.51a29.6,29.6,0,0,1,2.77,2.95l.42.5a1,1,0,0,0,.52.35l.17,0v.12l-.79,0a6.48,6.48,0,0,0-.81,0l-1.64-2a11.3,11.3,0,0,0-1.82-1.75v3q0,.64.75.6v.14a10.82,10.82,0,0,0-1.29-.08l-1.11.08Z"/><path class="cls-1" d="M31.94.12H1a1,1,0,0,0-1,1V32.07a1,1,0,0,0,1,1H31.94a1,1,0,0,0,1-1V1.13a1,1,0,0,0-1-1m.18,31.94a.18.18,0,0,1-.18.18H1a.18.18,0,0,1-.18-.18V1.13A.18.18,0,0,1,1,.95H31.94a.18.18,0,0,1,.18.18Z"/><rect class="cls-2" x="0.78" y="0.92" width="31.3" height="31.3" rx="0.18" ry="0.18"/><path class="cls-3" d="M22.6,24.12a2.36,2.36,0,0,1-1.44.55H21a2.34,2.34,0,0,1,.14.78A2.09,2.09,0,0,1,20.4,27a2.11,2.11,0,0,1-1.41.57h-.17a1.79,1.79,0,0,1-.41-.08l-1.82,2a.61.61,0,0,0-.08.3.24.24,0,0,0,0,.05V30a1,1,0,0,0,.48.7,2.44,2.44,0,0,0,.63.1.68.68,0,0,0,.42-.1l3.06-3.32s1.33-1.41,3-3.28a2.72,2.72,0,0,1-.65-1.31,1.83,1.83,0,0,1-.81,1.38M17,26.86a.91.91,0,0,0,0-.18h0l-.07-.1-.28-.4-3.42-5-.08-.1-1-1.32-1.56-2.32h0a.51.51,0,0,1,0-.11v0a.38.38,0,0,1,0-.08.43.43,0,0,1,.19-.36.44.44,0,0,1,.61.11l3.28,4.74.65.93,2.18,3,.1.15.21.24a2.27,2.27,0,0,0,.6.45,1.47,1.47,0,0,0,.25.1,1.2,1.2,0,0,0,.33.05,1.22,1.22,0,0,0,.83-.35,1.19,1.19,0,0,0,.46-.92,1.79,1.79,0,0,0-.23-.8v0l-.16-.27,0-.07-.27-.35-3-4.28-2.78-3.86-.26-.36,0,0,0-.07a.39.39,0,0,1,0-.13.33.33,0,0,1,0-.07.44.44,0,0,1,.18-.36.46.46,0,0,1,.26-.08.44.44,0,0,1,.36.18L20,22.95l.28.39.19.18,0,0a1.12,1.12,0,0,0,.68.25,1.48,1.48,0,0,0,.89-.36,1,1,0,0,0,.47-.76,1.4,1.4,0,0,0-.21-.65,11.17,11.17,0,0,0-.75-1.07l-3-4.3,0,0L18.1,16l-.47-.67-.43-.61-.11-.16-1.23-1.84.21-.15.13-.09h0l.31-.21.15.24a10.93,10.93,0,0,0,1.64,2.19,4.36,4.36,0,0,0,.39.26,4,4,0,0,0,.73.32,3.32,3.32,0,0,0,.8.15h.15a1.65,1.65,0,0,0,1-.27,1,1,0,0,0,.4-.88c0-.06,0-.13,0-.2V14L16.41,6.69l-.92-1.27a9,9,0,0,0-4.82-2.93,7.29,7.29,0,0,0-1.49-.16A7.67,7.67,0,0,0,2.82,5.9,7.19,7.19,0,0,0,2,7.75a7.81,7.81,0,0,0-.29,2.16,14.18,14.18,0,0,0,1.84,6.4A35.23,35.23,0,0,0,8,22.72c1.43,1.68,2.6,3.23,2.77,3.46a1.85,1.85,0,0,0,.22.16,1.09,1.09,0,0,0,.54.17.65.65,0,0,0,.35-.1l.15-.12a1,1,0,0,0,.37-.73v0a.86.86,0,0,0,0-.11,1.65,1.65,0,0,0-.05-.28L12,24.73,9.48,21,8.36,19.35a.45.45,0,0,1-.08-.21l-.19-.27.13-.12a.3.3,0,0,1,.25-.15v.14l.14-.07v0l0,0h.07a.44.44,0,0,1,.36.19l1.73,2.53,2.24,3.26.42.59.5.7.51.71,0,0a3.23,3.23,0,0,1,.26.37,1.57,1.57,0,0,0,1.19.82h.17a1.16,1.16,0,0,0,.87-1m-2.71,1c-.25.26-.41.44-.39.61,0,0,0,0,0,0v.07s0,.07,0,.11a.73.73,0,0,0,.43.69h0a.63.63,0,0,0,.36.09,1.9,1.9,0,0,0,.83-.23l.51-.54H16a2.18,2.18,0,0,1-1.66-.87m-1.69-1a1.79,1.79,0,0,1-.21.18.46.46,0,0,0,.22.17h0a1,1,0,0,0,.45.13.85.85,0,0,0,.61-.32l-.61-.85a2.11,2.11,0,0,1-.49.68M30.18,6.65a8.5,8.5,0,0,0-7-4,6.11,6.11,0,0,0-.82.05c-2.36.1-4.55,2.47-5.24,3.52l5.43,7.47v.14a3,3,0,0,1,0,.49,1.9,1.9,0,0,1-.9,1.68,2.61,2.61,0,0,1-1.36.35,4,4,0,0,1-1.1-.16l3,4.25.18.24a4.77,4.77,0,0,1,.89,1.59s0-.07,0-.11A5,5,0,0,1,24,19.83l.07-.11a5.51,5.51,0,0,0,.85-2.16.42.42,0,0,0,0-.06,4.59,4.59,0,0,0-.88-1.89,8.63,8.63,0,0,1-1.24-2.52,5.48,5.48,0,0,1-.14-1.2A3.3,3.3,0,0,1,24,9.11a.44.44,0,0,1,.27-.1h0a.44.44,0,0,1,.27.79,2.39,2.39,0,0,0-1,2.07,4.49,4.49,0,0,0,.12,1,8,8,0,0,0,1.11,2.23,5,5,0,0,1,1,2.38s0,.09,0,.14a6.25,6.25,0,0,1-1,2.53l-.07.11a4.16,4.16,0,0,0-.54,1.87,1.94,1.94,0,0,0,.41,1.24,44.62,44.62,0,0,0,4.73-6.27,13.88,13.88,0,0,0,1.79-6.45,8.15,8.15,0,0,0-1-4"/></g></g></svg>